<svg width="24" height="24" viewBox="0 0 24 24" fill="none" xmlns="http://www.w3.org/2000/svg">
<mask id="mask0" mask-type="alpha" maskUnits="userSpaceOnUse" x="0" y="0" width="24" height="24">
<path d="M12 0C18.6274 0 24 5.37258 24 12C24 18.6274 18.6274 24 12 24C5.37258 24 0 18.6274 0 12C0 5.37258 5.37258 0 12 0Z" fill="white"/>
</mask>
<g mask="url(#mask0)">
<path fill-rule="evenodd" clip-rule="evenodd" d="M24 12C24 5.37258 18.6274 0 12 0C5.37258 0 0 5.37258 0 12C0 18.6274 5.37258 24 12 24C18.6274 24 24 18.6274 24 12ZM9.3591 5.29206C10.1048 5.25804 10.3429 5.25 12.2417 5.25C14.1406 5.25 14.3786 5.25804 15.1244 5.29206C15.8686 5.32602 16.3768 5.44422 16.8216 5.61708C17.2813 5.79576 17.6713 6.0348 18.06 6.42354C18.4486 6.81222 18.6877 7.2021 18.8664 7.66188C19.0393 8.1066 19.1575 8.61486 19.1914 9.35904C19.2254 10.1048 19.2334 10.3429 19.2334 12.2417C19.2334 14.1406 19.2254 14.3786 19.1914 15.1244C19.1575 15.8686 19.0393 16.3768 18.8664 16.8216C18.6877 17.2813 18.4486 17.6713 18.06 18.06C17.6713 18.4486 17.2813 18.6877 16.8216 18.8664C16.3768 19.0393 15.8686 19.1575 15.1244 19.1914C14.3786 19.2254 14.1406 19.2334 12.2417 19.2334C10.3429 19.2334 10.1048 19.2254 9.3591 19.1914C8.61486 19.1575 8.10666 19.0393 7.66188 18.8664C7.2021 18.6877 6.81222 18.4486 6.42354 18.06C6.0348 17.6713 5.79576 17.2813 5.61708 16.8216C5.44422 16.3768 5.32602 15.8686 5.29206 15.1244C5.25804 14.3786 5.25 14.1406 5.25 12.2417C5.25 10.3429 5.25804 10.1048 5.29206 9.35904C5.32602 8.61486 5.44422 8.1066 5.61708 7.66188C5.79576 7.2021 6.0348 6.81222 6.42354 6.42354C6.81222 6.0348 7.2021 5.79576 7.66188 5.61708C8.10666 5.44422 8.61486 5.32602 9.3591 5.29206ZM15.067 6.55056C14.3297 6.5169 14.1086 6.50982 12.2417 6.50982C10.3748 6.50982 10.1537 6.5169 9.41652 6.55056C8.7348 6.58164 8.3646 6.69552 8.11824 6.79128C7.79184 6.91812 7.55898 7.06962 7.3143 7.3143C7.06962 7.55892 6.91812 7.79184 6.79128 8.11824C6.69552 8.3646 6.58164 8.7348 6.55056 9.41646C6.5169 10.1537 6.50982 10.3748 6.50982 12.2417C6.50982 14.1086 6.5169 14.3297 6.55056 15.067C6.58164 15.7487 6.69552 16.1189 6.79128 16.3652C6.91812 16.6916 7.06968 16.9245 7.3143 17.1692C7.55898 17.4138 7.79184 17.5653 8.11824 17.6922C8.3646 17.7879 8.7348 17.9018 9.41652 17.9329C10.1536 17.9666 10.3747 17.9737 12.2417 17.9737C14.1087 17.9737 14.3299 17.9666 15.067 17.9329C15.7487 17.9018 16.1189 17.7879 16.3653 17.6922C16.6916 17.5653 16.9245 17.4138 17.1692 17.1692C17.4138 16.9245 17.5654 16.6916 17.6922 16.3652C17.788 16.1189 17.9018 15.7487 17.933 15.067C17.9666 14.3297 17.9737 14.1086 17.9737 12.2417C17.9737 10.3748 17.9666 10.1537 17.933 9.41646C17.9018 8.7348 17.788 8.3646 17.6922 8.11824C17.5654 7.79184 17.4138 7.55892 17.1692 7.3143C16.9245 7.06962 16.6916 6.91812 16.3653 6.79128C16.1189 6.69552 15.7487 6.58164 15.067 6.55056ZM12.2417 14.5723C10.9546 14.5723 9.91116 13.5288 9.91116 12.2417C9.91116 10.9546 10.9546 9.91114 12.2417 9.91114C13.5289 9.91114 14.5723 10.9546 14.5723 12.2417C14.5723 13.5288 13.5289 14.5723 12.2417 14.5723ZM12.2417 8.65138C10.2589 8.65138 8.6514 10.2588 8.6514 12.2417C8.6514 14.2246 10.2589 15.8321 12.2417 15.8321C14.2246 15.8321 15.8321 14.2246 15.8321 12.2417C15.8321 10.2588 14.2246 8.65138 12.2417 8.65138ZM15.974 9.34852C16.4373 9.34852 16.8129 8.97292 16.8129 8.50954C16.8129 8.04616 16.4373 7.67056 15.974 7.67056C15.5106 7.67056 15.1349 8.04616 15.1349 8.50954C15.1349 8.97292 15.5106 9.34852 15.974 9.34852Z" fill="#183E31"/>
</g>
</svg>
