<svg width="56" height="56" viewBox="0 0 56 56" fill="none" xmlns="http://www.w3.org/2000/svg">
<path d="M53.796 17.1008C52.3884 13.7627 50.3694 10.7705 47.7955 8.20454C45.2215 5.63057 42.2292 3.61161 38.8992 2.20397C35.4484 0.740018 31.7805 0 28 0C24.2195 0 20.5516 0.740018 17.1008 2.20397C13.7627 3.61161 10.7705 5.63057 8.20454 8.20454C5.63057 10.7785 3.61161 13.7708 2.20397 17.1008C0.740018 20.5516 0 24.2195 0 28C0 31.7805 0.740018 35.4484 2.20397 38.8992C3.61161 42.2373 5.63057 45.2295 8.20454 47.7955C10.7785 50.3694 13.7708 52.3884 17.1008 53.796C20.5516 55.26 24.2195 56 28 56C31.7805 56 35.4484 55.26 38.8992 53.796C42.2373 52.3884 45.2295 50.3694 47.7955 47.7955C50.3694 45.2215 52.3884 42.2292 53.796 38.8992C55.26 35.4484 56 31.7805 56 28C56 24.2195 55.26 20.5516 53.796 17.1008ZM1.60873 28C1.60873 20.9538 4.35162 14.3258 9.3387 9.3387C14.3258 4.35162 20.9538 1.60873 28 1.60873C34.8854 1.60873 41.3686 4.23097 46.3154 9.00086L36.1241 19.1922V17.0526C36.1241 16.5941 35.7541 16.2241 35.2956 16.2241H33.9764V13.4812C33.9764 13.0227 33.6064 12.6527 33.1479 12.6527H30.6705L29.8983 6.78081C29.842 6.37058 29.4961 6.06493 29.0779 6.06493H26.9141C26.4958 6.06493 26.15 6.37058 26.0937 6.78081L25.3215 12.6527H22.8521C22.3936 12.6527 22.0236 13.0227 22.0236 13.4812V16.2241H20.7044C20.2459 16.2241 19.8759 16.5941 19.8759 17.0526V35.4324L9.00086 46.3154C4.23097 41.3686 1.60873 34.8854 1.60873 28ZM29.9466 14.3177H32.3195V16.2321H23.6725V14.3177H26.0454H29.9466ZM26.9945 12.6607L27.6461 7.72996H28.362L29.0135 12.6607H26.9945ZM33.1479 17.8811H34.4671V46.05C34.4671 46.597 32.2873 47.8839 28.0724 47.8839H27.9276C23.7047 47.8839 21.5329 46.597 21.5329 46.05V17.8811H22.8521H33.1479ZM46.6613 46.6613C41.6742 51.6484 35.0463 54.3913 28 54.3913C21.4122 54.3913 15.1864 51.9943 10.3281 47.6024L19.8759 38.0546V46.05C19.8759 46.8141 20.3344 47.9 22.5303 48.7044C23.9862 49.2433 25.9006 49.5329 27.9196 49.5329H28.0644C30.0914 49.5329 32.0057 49.2353 33.4536 48.7044C35.6495 47.892 36.108 46.8141 36.108 46.05V21.8144L47.5863 10.3361C51.9701 15.1945 54.3752 21.4122 54.3752 28.008C54.3913 35.0463 51.6484 41.6742 46.6613 46.6613Z" fill="white"/>
</svg>
