<svg width="56" height="56" viewBox="0 0 56 56" fill="none" xmlns="http://www.w3.org/2000/svg">
<path d="M53.796 17.1008C52.3884 13.7627 50.3694 10.7705 47.7955 8.20454C45.2215 5.63861 42.2292 3.61161 38.8992 2.20397C35.4484 0.740018 31.7805 0 28 0C24.2195 0 20.5516 0.740018 17.1008 2.20397C13.7627 3.61161 10.7705 5.63057 8.20454 8.20454C5.63861 10.7785 3.61161 13.7708 2.20397 17.1008C0.740018 20.5516 0 24.2195 0 28C0 31.7805 0.740018 35.4484 2.20397 38.8992C3.61161 42.2373 5.63057 45.2295 8.20454 47.7955C10.7785 50.3694 13.7708 52.3884 17.1008 53.796C20.5516 55.26 24.2195 56 28 56C31.7805 56 35.4484 55.26 38.8992 53.796C42.2373 52.3884 45.2295 50.3694 47.7955 47.7955C50.3694 45.2215 52.3884 42.2292 53.796 38.8992C55.26 35.4484 56 31.7805 56 28C56 24.2195 55.26 20.5516 53.796 17.1008ZM1.60873 28C1.60873 20.9538 4.35162 14.3258 9.3387 9.3387C14.3258 4.35162 20.9538 1.60873 28 1.60873C34.9497 1.60873 41.4892 4.27923 46.4441 9.12956L31.2818 24.2919L30.9681 19.7633C31.4427 20.0126 31.9816 20.1494 32.5366 20.1494H32.5849C34.0649 20.1494 35.36 19.2083 35.8104 17.8006L35.8265 17.7604C35.8426 17.7202 35.8506 17.68 35.8667 17.6478L37.6604 12.7009C37.7731 12.4033 37.6926 12.0655 37.4674 11.8322C37.2422 11.607 36.9043 11.5266 36.5987 11.6392L31.6518 13.4329C31.6116 13.449 31.5714 13.4571 31.5312 13.4731L31.499 13.4812H31.491C31.5955 12.7975 31.491 12.0816 31.1531 11.43L31.137 11.3979C31.1209 11.3577 31.0968 11.3255 31.0807 11.2853L28.8446 6.52341C28.7078 6.23384 28.4183 6.04884 28.0965 6.04884C27.7748 6.04884 27.4852 6.23384 27.3485 6.52341L25.1123 11.2933C25.0962 11.3335 25.0721 11.3657 25.056 11.4059L25.0399 11.4381C24.6941 12.1138 24.5975 12.8538 24.7182 13.5616C24.6458 13.5375 24.5734 13.5053 24.501 13.4812L24.4688 13.4731C24.4286 13.4571 24.3884 13.449 24.3482 13.4329L19.4013 11.6392C19.1037 11.5266 18.7659 11.607 18.5326 11.8322C18.3074 12.0575 18.2269 12.3953 18.3396 12.7009L20.1333 17.6478C20.1494 17.688 20.1574 17.7282 20.1735 17.7604L20.1896 17.8006C20.64 19.2083 21.9431 20.1494 23.4151 20.1494H23.4634C24.0264 20.1494 24.5573 20.0126 25.0319 19.7633L24.2356 31.3462L9.12956 46.4441C4.27923 41.4892 1.60873 34.9497 1.60873 28ZM29.7374 25.8443L30.8153 41.441C30.8153 41.449 30.8153 41.4571 30.8153 41.4651C30.8877 42.2212 30.9279 42.9854 30.9279 43.7495V45.3502C30.9279 46.9428 29.6329 48.2298 28.0483 48.2298H27.9759C26.3832 48.2298 25.0962 46.9348 25.0962 45.3502V43.7495C25.0962 42.9934 25.1365 42.2212 25.2088 41.4651C25.2088 41.4571 25.2088 41.449 25.2088 41.441L26.8739 17.2376C26.8819 17.1652 26.8739 17.0847 26.8578 17.0204C26.8658 16.9319 26.8658 16.8434 26.8658 16.755V16.7067C26.8658 16.5136 26.8498 16.3286 26.8176 16.1517C27.2198 16.3206 27.6541 16.401 28.1046 16.401C28.4826 16.401 28.8446 16.3367 29.1905 16.2241C29.1663 16.3849 29.1583 16.5458 29.1583 16.7067V16.755C29.1583 16.8434 29.1663 16.9319 29.1663 17.0204C29.1502 17.0928 29.1422 17.1652 29.1502 17.2376L29.7374 25.8443C29.7294 25.8443 29.7294 25.8443 29.7374 25.8443ZM25.2008 16.755C25.2008 17.7122 24.4206 18.4924 23.4634 18.4924H23.4151C22.659 18.4924 21.9914 18.0098 21.7581 17.2858L21.7501 17.2537C21.734 17.1974 21.7099 17.1411 21.6938 17.0847L20.5033 13.7949L23.7932 14.9854C23.8495 15.0095 23.9138 15.0256 23.9701 15.0417L24.0023 15.0497C24.7262 15.283 25.2088 15.9506 25.2088 16.7067V16.755H25.2008ZM26.5119 12.1862L26.528 12.154C26.5602 12.0977 26.5843 12.0414 26.6084 11.9851L28.0965 8.81586L29.5846 11.9851C29.6087 12.0414 29.6409 12.0977 29.665 12.154L29.6811 12.1862C30.027 12.8618 29.8983 13.6742 29.3594 14.2132L29.3272 14.2453C28.9974 14.5751 28.5631 14.7521 28.0965 14.7521C27.63 14.7521 27.1956 14.5671 26.8658 14.2453L26.8337 14.2132C26.2947 13.6742 26.166 12.8618 26.5119 12.1862ZM30.7992 16.755V16.7067C30.7992 15.9506 31.2818 15.283 32.0057 15.0497L32.0379 15.0417C32.0942 15.0256 32.1586 15.0014 32.2149 14.9854L35.5047 13.7949L34.3143 17.0847C34.2901 17.1411 34.2741 17.1974 34.258 17.2617L34.2499 17.2939C34.0167 18.0178 33.349 18.5004 32.5929 18.5004H32.5447C32.0781 18.5004 31.6438 18.3154 31.314 17.9937C30.9762 17.6558 30.7992 17.2215 30.7992 16.755ZM46.6613 46.6613C41.6742 51.6484 35.0463 54.3913 28 54.3913C21.4685 54.3913 15.2991 52.0345 10.4648 47.7231L24.0345 34.1534L23.5438 41.3203C23.4634 42.1247 23.4312 42.9451 23.4312 43.7495V45.3502C23.4312 47.8518 25.4662 49.8868 27.9678 49.8868H28.0402C30.5418 49.8868 32.5769 47.8518 32.5769 45.3502V43.7495C32.5769 42.9451 32.5366 42.1247 32.4642 41.3203L31.4588 26.7452L47.7231 10.4648C52.0345 15.2991 54.3913 21.4685 54.3913 28C54.3913 35.0463 51.6484 41.6742 46.6613 46.6613Z" fill="white"/>
</svg>
