<svg width="56" height="56" viewBox="0 0 56 56" fill="none" xmlns="http://www.w3.org/2000/svg">
<path d="M53.796 17.1008C52.3884 13.7627 50.3694 10.7705 47.7955 8.20454C45.2215 5.63057 42.2292 3.61161 38.8992 2.20396C35.4484 0.740018 31.7805 0 28 0C24.2195 0 20.5516 0.740018 17.1008 2.20396C13.7627 3.61161 10.7705 5.63057 8.20454 8.20454C5.63057 10.7785 3.61161 13.7708 2.20396 17.1008C0.740018 20.5516 0 24.2195 0 28C0 31.7805 0.740018 35.4484 2.20396 38.8992C3.61161 42.2373 5.63057 45.2295 8.20454 47.7955C10.7785 50.3694 13.7708 52.3884 17.1008 53.796C20.5516 55.26 24.2195 56 28 56C31.7805 56 35.4484 55.26 38.8992 53.796C42.2373 52.3884 45.2295 50.3694 47.7955 47.7955C50.3694 45.2215 52.3884 42.2292 53.796 38.8992C55.26 35.4484 56 31.7805 56 28C56 24.2195 55.2519 20.5596 53.796 17.1008ZM1.60069 28C1.60069 20.9537 4.34358 14.3258 9.33065 9.3387C14.3177 4.35162 20.9457 1.60873 27.992 1.60873C34.8532 1.60873 41.3042 4.20684 46.243 8.93651L35.8667 19.3128C35.4886 18.5567 34.9739 17.8569 34.3545 17.2698L34.3143 17.2295C33.164 16.1356 32.5125 14.5912 32.5125 13.0066V12.8457H33.5903C34.0488 12.8457 34.4188 12.4757 34.4188 12.0172V8.41367C34.4188 7.95519 34.0488 7.58518 33.5903 7.58518H22.4016C21.9431 7.58518 21.5731 7.95519 21.5731 8.41367V12.0172C21.5731 12.4757 21.9431 12.8457 22.4016 12.8457H23.4795V13.0066C23.4795 14.5912 22.8199 16.1356 21.6777 17.2295L21.6375 17.2698C20.1655 18.6774 19.3209 20.6481 19.3209 22.6831V35.8748L8.94456 46.2511C4.19879 41.3203 1.60069 34.8612 1.60069 28ZM20.9618 23.1899V22.6831C20.9618 21.0985 21.6214 19.5542 22.7636 18.4602L22.8038 18.42C24.2758 17.0124 25.1204 15.0417 25.1204 13.0066V12.8457H30.8555V13.0066C30.8555 15.0417 31.7001 17.0124 33.1721 18.42L33.2123 18.4602C34.3625 19.5542 35.0141 21.0985 35.0141 22.6831V23.1899H20.9618ZM35.0221 24.8388V43.5886C35.0221 45.3341 33.5984 46.7578 31.8529 46.7578H24.139C22.3936 46.7578 20.9698 45.3341 20.9698 43.5886V24.8388H35.0221ZM24.2999 11.1887H23.2221V9.23413H32.7618V11.1887H31.684H24.2999ZM46.6533 46.6613C41.6662 51.6484 35.0382 54.3913 27.992 54.3913C21.372 54.3913 15.1221 51.9701 10.2557 47.5461L19.3128 38.4889V43.5886C19.3128 46.2511 21.4766 48.4148 24.139 48.4148H31.8529C34.5154 48.4148 36.6791 46.2511 36.6791 43.5886V22.6831C36.6791 22.2005 36.6309 21.7259 36.5424 21.2594L47.5381 10.2637C51.9621 15.1301 54.3832 21.3801 54.3832 28C54.3832 35.0543 51.6403 41.6823 46.6533 46.6613Z" fill="white"/>
</svg>
