<svg width="56" height="56" viewBox="0 0 56 56" fill="none" xmlns="http://www.w3.org/2000/svg">
<path d="M53.796 17.1008C52.3884 13.7627 50.3694 10.7705 47.7955 8.20454C45.2215 5.63057 42.2292 3.61161 38.8992 2.20397C35.4484 0.740018 31.7805 0 28 0C24.2195 0 20.5516 0.740018 17.1008 2.20397C13.7627 3.61161 10.7705 5.63057 8.20454 8.20454C5.63057 10.7785 3.61161 13.7708 2.20397 17.1008C0.740018 20.5516 0 24.2195 0 28C0 31.7805 0.740018 35.4484 2.20397 38.8992C3.61161 42.2373 5.63057 45.2295 8.20454 47.7955C10.7785 50.3694 13.7708 52.3884 17.1008 53.796C20.5516 55.26 24.2195 56 28 56C31.7805 56 35.4484 55.26 38.8992 53.796C42.2373 52.3884 45.2295 50.3694 47.7955 47.7955C50.3694 45.2215 52.3884 42.2292 53.796 38.8992C55.26 35.4484 56 31.7805 56 28C56 24.2195 55.26 20.5516 53.796 17.1008ZM1.60873 28C1.60873 20.9538 4.35162 14.3258 9.3387 9.3387C14.3258 4.35162 20.9538 1.60873 28 1.60873C34.8291 1.60873 41.264 4.19075 46.1948 8.88021L34.1212 20.9618V17.6317V17.5674V11.3094V11.245V4.92272C34.1212 4.46424 33.7512 4.09423 33.2927 4.09423C32.8342 4.09423 32.4642 4.46424 32.4642 4.92272V11.245V11.3094C32.4642 13.4812 30.8877 15.291 28.8205 15.653V12.709C28.8205 12.2505 28.4504 11.8805 27.992 11.8805C27.5335 11.8805 27.1635 12.2505 27.1635 12.709V15.653C25.0962 15.283 23.5197 13.4812 23.5197 11.3094V11.245V4.92272C23.5197 4.46424 23.1497 4.09423 22.6912 4.09423C22.2327 4.09423 21.8627 4.46424 21.8627 4.92272V11.245V11.3094V17.5674V17.6317V23.8897V23.954V30.212V30.2764V33.1882L8.88021 46.1948C4.19075 41.264 1.60873 34.8291 1.60873 28ZM28.8285 34.628V29.9707C30.2522 29.7857 31.5312 29.11 32.4723 28.1126V30.2201V30.2844C32.4642 32.4482 30.8957 34.258 28.8285 34.628ZM32.4642 34.4349V36.6067C32.4642 38.7785 30.8877 40.5883 28.8205 40.9503V36.293C30.2522 36.1161 31.5231 35.4324 32.4642 34.4349ZM28.8285 28.2976V23.6403C30.2522 23.4553 31.5312 22.7797 32.4723 21.7822V23.8897V23.954C32.4642 26.1258 30.8957 27.9357 28.8285 28.2976ZM28.8285 21.9753V17.318C30.2522 17.133 31.5312 16.4573 32.4723 15.4599V17.5674V17.6317C32.4642 19.7955 30.8957 21.6053 28.8285 21.9753ZM23.5358 30.2844V30.2201V28.1126C24.4769 29.11 25.7478 29.7937 27.1795 29.9707V34.628C25.1043 34.258 23.5358 32.4482 23.5358 30.2844ZM27.1715 36.293V40.9503C25.1043 40.5803 23.5277 38.7785 23.5277 36.6067V34.4349C24.4769 35.4324 25.7478 36.1161 27.1715 36.293ZM23.5358 23.954V23.8897V21.7822C24.4769 22.7797 25.7478 23.4634 27.1795 23.6403V28.2976C25.1043 27.9357 23.5358 26.1258 23.5358 23.954ZM23.5358 17.6317V17.5674V15.4599C24.4769 16.4573 25.7478 17.1411 27.1795 17.318V21.9753C25.1043 21.6053 23.5358 19.7955 23.5358 17.6317ZM46.6613 46.6613C41.6742 51.6484 35.0463 54.3913 28 54.3913C21.3479 54.3913 15.0819 51.946 10.2074 47.4898L21.8868 35.8104V36.6067C21.8868 39.6875 24.1953 42.2373 27.1795 42.6234V51.0934C27.1795 51.5519 27.5496 51.9219 28.008 51.9219C28.4665 51.9219 28.8365 51.5519 28.8365 51.0934V42.6234C31.8207 42.2453 34.1293 39.6875 34.1293 36.6067V30.2844V30.2201V23.9621V23.8977V23.576L47.4978 10.2074C51.954 15.0819 54.3993 21.3559 54.3993 28C54.3913 35.0463 51.6484 41.6742 46.6613 46.6613Z" fill="white"/>
</svg>
